ply
format ascii 1.0
comment Created by Blender 2.77 (sub 0) - www.blender.org, source file: 'NewRuins.blend'
element vertex 60
property float x
property float y
property float z
property float nx
property float ny
property float nz
property uchar red
property uchar green
property uchar blue
element face 20
property list uchar uint vertex_indices
end_header
-0.253207 -0.506148 0.000000 -0.187597 -0.794651 -0.577354 250 80 63
-0.619455 -0.226357 -0.266092 -0.187597 -0.794651 -0.577354 250 80 63
-0.113315 -0.226357 -0.430550 -0.187597 -0.794651 -0.577354 250 80 63
-0.619455 -0.226357 -0.266092 -0.607065 -0.794652 0.000000 250 80 63
-0.253207 -0.506148 0.000000 -0.607065 -0.794652 0.000000 250 80 63
-0.619455 -0.226357 0.266092 -0.607065 -0.794652 0.000000 250 80 63
-0.253207 -0.506148 0.000000 0.491122 -0.794652 -0.356829 250 80 63
-0.113315 -0.226357 -0.430550 0.491122 -0.794652 -0.356829 250 80 63
0.199504 -0.226357 0.000000 0.491122 -0.794652 -0.356829 250 80 63
-0.253207 -0.506148 0.000000 0.491122 -0.794652 0.356829 250 80 63
0.199504 -0.226357 0.000000 0.491122 -0.794652 0.356829 250 80 63
-0.113315 -0.226357 0.430550 0.491122 -0.794652 0.356829 250 80 63
-0.253207 -0.506148 0.000000 -0.187597 -0.794651 0.577354 250 80 63
-0.113315 -0.226357 0.430550 -0.187597 -0.794651 0.577354 250 80 63
-0.619455 -0.226357 0.266092 -0.187597 -0.794651 0.577354 250 80 63
-0.619455 -0.226357 -0.266092 -0.982246 -0.187597 -0.000000 250 80 63
-0.619455 -0.226357 0.266092 -0.982246 -0.187597 -0.000000 250 80 63
-0.705918 0.226357 0.000000 -0.982246 -0.187597 -0.000000 250 80 63
-0.113315 -0.226357 -0.430550 -0.303536 -0.187589 -0.934171 250 80 63
-0.619455 -0.226357 -0.266092 -0.303536 -0.187589 -0.934171 250 80 63
-0.393099 0.226357 -0.430550 -0.303536 -0.187589 -0.934171 250 80 63
0.199504 -0.226357 0.000000 0.794649 -0.187587 -0.577359 250 80 63
-0.113315 -0.226357 -0.430550 0.794649 -0.187587 -0.577359 250 80 63
0.113042 0.226357 -0.266092 0.794649 -0.187587 -0.577359 250 80 63
-0.113315 -0.226357 0.430550 0.794649 -0.187587 0.577359 250 80 63
0.199504 -0.226357 0.000000 0.794649 -0.187587 0.577359 250 80 63
0.113042 0.226357 0.266092 0.794649 -0.187587 0.577359 250 80 63
-0.619455 -0.226357 0.266092 -0.303536 -0.187589 0.934171 250 80 63
-0.113315 -0.226357 0.430550 -0.303536 -0.187589 0.934171 250 80 63
-0.393099 0.226357 0.430550 -0.303536 -0.187589 0.934171 250 80 63
-0.619455 -0.226357 -0.266092 -0.794649 0.187587 -0.577359 250 80 63
-0.705918 0.226357 0.000000 -0.794649 0.187587 -0.577359 250 80 63
-0.393099 0.226357 -0.430550 -0.794649 0.187587 -0.577359 250 80 63
-0.113315 -0.226357 -0.430550 0.303536 0.187589 -0.934171 250 80 63
-0.393099 0.226357 -0.430550 0.303536 0.187589 -0.934171 250 80 63
0.113042 0.226357 -0.266092 0.303536 0.187589 -0.934171 250 80 63
0.199504 -0.226357 0.000000 0.982246 0.187597 0.000000 250 80 63
0.113042 0.226357 -0.266092 0.982246 0.187597 0.000000 250 80 63
0.113042 0.226357 0.266092 0.982246 0.187597 0.000000 250 80 63
-0.113315 -0.226357 0.430550 0.303536 0.187589 0.934171 250 80 63
0.113042 0.226357 0.266092 0.303536 0.187589 0.934171 250 80 63
-0.393099 0.226357 0.430550 0.303536 0.187589 0.934171 250 80 63
-0.619455 -0.226357 0.266092 -0.794649 0.187587 0.577359 250 80 63
-0.393099 0.226357 0.430550 -0.794649 0.187587 0.577359 250 80 63
-0.705918 0.226357 0.000000 -0.794649 0.187587 0.577359 250 80 63
-0.393099 0.226357 -0.430550 -0.491122 0.794652 -0.356829 250 80 63
-0.705918 0.226357 0.000000 -0.491122 0.794652 -0.356829 250 80 63
-0.253207 0.506148 0.000000 -0.491122 0.794652 -0.356829 250 80 63
0.113042 0.226357 -0.266092 0.187597 0.794651 -0.577354 250 80 63
-0.393099 0.226357 -0.430550 0.187597 0.794651 -0.577354 250 80 63
-0.253207 0.506148 0.000000 0.187597 0.794651 -0.577354 250 80 63
0.113042 0.226357 0.266092 0.607065 0.794652 -0.000000 250 80 63
0.113042 0.226357 -0.266092 0.607065 0.794652 -0.000000 250 80 63
-0.253207 0.506148 0.000000 0.607065 0.794652 -0.000000 250 80 63
-0.393099 0.226357 0.430550 0.187597 0.794651 0.577354 250 80 63
0.113042 0.226357 0.266092 0.187597 0.794651 0.577354 250 80 63
-0.253207 0.506148 0.000000 0.187597 0.794651 0.577354 250 80 63
-0.705918 0.226357 0.000000 -0.491122 0.794652 0.356829 250 80 63
-0.393099 0.226357 0.430550 -0.491122 0.794652 0.356829 250 80 63
-0.253207 0.506148 0.000000 -0.491122 0.794652 0.356829 250 80 63
3 0 1 2
3 3 4 5
3 6 7 8
3 9 10 11
3 12 13 14
3 15 16 17
3 18 19 20
3 21 22 23
3 24 25 26
3 27 28 29
3 30 31 32
3 33 34 35
3 36 37 38
3 39 40 41
3 42 43 44
3 45 46 47
3 48 49 50
3 51 52 53
3 54 55 56
3 57 58 59
