ply
format ascii 1.0
comment Created by Blender 2.77 (sub 0) - www.blender.org, source file: ''
element vertex 12
property float x
property float y
property float z
property float nx
property float ny
property float nz
property uchar red
property uchar green
property uchar blue
element face 4
property list uchar uint vertex_indices
end_header
0.000000 1.000000 0.000000 -0.471405 0.333333 0.816496 255 255 255
-0.942809 -0.333333 0.000000 -0.471405 0.333333 0.816496 255 255 255
0.471405 -0.333333 0.816497 -0.471405 0.333333 0.816496 255 255 255
0.000000 1.000000 0.000000 0.942809 0.333334 -0.000000 255 255 255
0.471405 -0.333333 0.816497 0.942809 0.333334 -0.000000 255 255 255
0.471405 -0.333333 -0.816497 0.942809 0.333334 -0.000000 255 255 255
0.000000 1.000000 0.000000 -0.471405 0.333333 -0.816496 255 255 255
0.471405 -0.333333 -0.816497 -0.471405 0.333333 -0.816496 255 255 255
-0.942809 -0.333333 0.000000 -0.471405 0.333333 -0.816496 255 255 255
-0.942809 -0.333333 0.000000 -0.000000 -1.000000 -0.000000 255 255 255
0.471405 -0.333333 -0.816497 -0.000000 -1.000000 -0.000000 255 255 255
0.471405 -0.333333 0.816497 -0.000000 -1.000000 -0.000000 255 255 255
3 0 1 2
3 3 4 5
3 6 7 8
3 9 10 11
